# xmcd CD database file
#
# Track frame offsets:
#	150
#	21565
#	47063
#	62881
#	94000
#	119119
#	144195
#	169236
#	189150
#	211915
#	242180
#
# Disc length: 3668 seconds
#
# Revision: 2
# Processed by: cddbd v1.5PL3 Copyright (c) Steve Scherf et al.
# Submitted via: CDex 1.50
#
DISCID=9f0e520b
DTITLE=ISO SQUARE and FRIENDS - The Songs for You
DYEAR=2001
DGENRE=Jazz
TTITLE0=FLY ME TO THE MOON
TTITLE1=AS TIME GOES BY
TTITLE2=LUSH LIFE
TTITLE3=GO AND SEE MY LOVE
TTITLE4=WHAT A WONDERFUL WORLD
TTITLE5=ONCE I LOVED
TTITLE6=MISTY
TTITLE7=LOVE FOR SALE
TTITLE8=MY ONE AND ONLY LOVE
TTITLE9=E.N. WALTZ
TTITLE10=A SONG FOR YOU
EXTD=YEAR: 2001
EXTT0=
EXTT1=
EXTT2=
EXTT3=
EXTT4=
EXTT5=
EXTT6=
EXTT7=
EXTT8=
EXTT9=
EXTT10=
PLAYORDER=
